<svg xmlns="http://www.w3.org/2000/svg" viewBox="0 0 512 512">
  <defs>
    <linearGradient id="bgGradient" x1="0%" y1="0%" x2="100%" y2="100%">
      <stop offset="0%" style="stop-color:#EC4899"/>
      <stop offset="50%" style="stop-color:#8B5CF6"/>
      <stop offset="100%" style="stop-color:#06B6D4"/>
    </linearGradient>
  </defs>
  <!-- Full background for maskable (safe area is 80% center) -->
  <rect width="512" height="512" fill="url(#bgGradient)"/>

  <!-- Clarissa Bot Face - scaled for maskable safe area (80% center) -->
  <!-- Car icon moved up high - wheels become eyes -->
  <g transform="translate(136, 75) scale(10)" fill="none" stroke="#ffffff" stroke-width="1.5" stroke-linecap="round" stroke-linejoin="round">
    <path d="M19 17h2c.6 0 1-.4 1-1v-3c0-.9-.7-1.7-1.5-1.9C18.7 10.6 16 10 16 10s-1.3-1.4-2.2-2.3c-.5-.4-1.1-.7-1.8-.7H5c-.6 0-1.1.4-1.4.9l-1.4 2.9A3.7 3.7 0 0 0 2 12v4c0 .6.4 1 1 1h2"/>
    <circle cx="7" cy="17" r="2"/>
    <path d="M9 17h6"/>
    <circle cx="17" cy="17" r="2"/>
  </g>

  <!-- Smile - curved arc -->
  <path d="M 190 350 Q 256 405 322 350" fill="none" stroke="#ffffff" stroke-width="14" stroke-linecap="round"/>
</svg>

